<?xml version="1.0" standalone="no"?>
<svg xmlns="http://www.w3.org/2000/svg" viewBox="0 0 150.028 29" width="150.028" height="29"><g fill="#ffffff" color="#ffffff" transform="translate(0, 0) scale(0.5686275)"><svg width="44.0" height="51.0" x="0.0" y="0.0" viewBox="0 0 44 51"><path fill="currentColor" fill-rule="evenodd" d="M21.986 0L44 12.704v25.393L22.029 50.801.014 38.111 0 12.718 21.986 0zM22 7.428L6.43 16.425V34.42l15.599 8.996 15.555-9.01-.014-17.994L22 7.428zm-.001 5.403l10.907 6.302v12.561l-10.907 6.302-10.893-6.288-.015-12.575L22 12.83z"></path></svg></g><line x1="37.02" y1="1" x2="37.02" y2="28" stroke="#ffffff" stroke-linecap="round"></line><path fill="#ffffff" fill-rule="nonzero" d="M3.98 20.74L0 20.74L0 0.12L3.98 0.12L3.98 20.74ZM12.67 20.74L7.80 20.74L4.99 3.17L9.19 3.17L10.06 12.05L10.20 14.90L10.37 12.02L11.33 3.17L15.53 3.17L12.67 20.74ZM19.82 20.93Q17.78 20.93 17.03 19.57Q16.27 18.22 16.27 15.70L16.27 15.70Q16.27 13.63 16.81 12.53Q17.35 11.42 18.31 10.91Q19.27 10.39 21.24 9.77L21.24 9.77L22.39 9.38L22.39 9.34L22.39 7.58Q22.39 6.89 22.12 6.52Q21.84 6.14 21.46 6.14L21.46 6.14Q21.12 6.14 20.87 6.46Q20.62 6.77 20.62 7.30L20.62 7.30L20.62 8.35L16.54 8.35L16.54 7.78Q16.54 5.18 17.75 4.08Q18.96 2.98 21.70 2.98L21.70 2.98Q23.88 2.98 25.25 4.12Q26.62 5.26 26.62 7.34L26.62 7.34L26.62 20.74L22.44 20.74L22.44 18.65Q22.13 19.73 21.44 20.33Q20.76 20.93 19.82 20.93L19.82 20.93ZM21.48 17.66Q21.96 17.66 22.16 17.27Q22.37 16.87 22.37 16.30L22.37 16.30L22.37 11.40Q21.43 11.76 20.99 12.31Q20.54 12.86 20.54 13.85L20.54 13.85L20.54 16.10Q20.54 17.66 21.48 17.66L21.48 17.66ZM28.22 20.74L28.22 3.17L32.42 3.17L32.42 5.40Q32.69 4.32 33.34 3.65Q33.98 2.98 35.06 2.98L35.06 2.98Q36.84 2.98 37.69 4.07Q38.54 5.16 38.54 7.18L38.54 7.18L38.54 20.74L34.42 20.74L34.42 7.61Q34.42 7.03 34.19 6.62Q33.96 6.22 33.48 6.22L33.48 6.22Q32.83 6.22 32.63 6.80Q32.42 7.39 32.42 8.38L32.42 8.38L32.42 20.74L28.22 20.74ZM45.89 20.74L45.89 0.12L51.34 0.12Q53.81 0.12 54.86 1.72Q55.92 3.31 55.92 6.38L55.92 6.38Q55.92 9.46 54.98 11.02Q54.05 12.58 51.62 12.58L51.62 12.58L49.94 12.58L49.94 20.74L45.89 20.74ZM49.94 8.86L50.18 8.86Q50.93 8.86 51.28 8.58Q51.62 8.30 51.73 7.79Q51.84 7.27 51.84 6.31L51.84 6.31Q51.84 5.02 51.55 4.44Q51.26 3.86 50.40 3.86L50.40 3.86L49.94 3.86L49.94 8.86ZM60.34 20.93Q58.30 20.93 57.54 19.57Q56.78 18.22 56.78 15.70L56.78 15.70Q56.78 13.63 57.32 12.53Q57.86 11.42 58.82 10.91Q59.78 10.39 61.75 9.77L61.75 9.77L62.90 9.38L62.90 9.34L62.90 7.58Q62.90 6.89 62.63 6.52Q62.35 6.14 61.97 6.14L61.97 6.14Q61.63 6.14 61.38 6.46Q61.13 6.77 61.13 7.30L61.13 7.30L61.13 8.35L57.05 8.35L57.05 7.78Q57.05 5.18 58.26 4.08Q59.47 2.98 62.21 2.98L62.21 2.98Q64.39 2.98 65.76 4.12Q67.13 5.26 67.13 7.34L67.13 7.34L67.13 20.74L62.95 20.74L62.95 18.65Q62.64 19.73 61.96 20.33Q61.27 20.93 60.34 20.93L60.34 20.93ZM61.99 17.66Q62.47 17.66 62.68 17.27Q62.88 16.87 62.88 16.30L62.88 16.30L62.88 11.40Q61.94 11.76 61.50 12.31Q61.06 12.86 61.06 13.85L61.06 13.85L61.06 16.10Q61.06 17.66 61.99 17.66L61.99 17.66ZM75.53 20.93Q73.80 20.93 73.06 18.86L73.06 18.86L73.06 20.74L68.74 20.74L68.74 0L73.06 0L73.06 4.01Q74.06 2.98 75.41 2.98L75.41 2.98Q77.45 2.98 78.34 4.19Q79.22 5.40 79.22 7.68L79.22 7.68L79.22 16.15Q79.22 18.31 78.31 19.62Q77.40 20.93 75.53 20.93L75.53 20.93ZM74.11 17.66Q74.54 17.66 74.72 17.39Q74.90 17.11 74.94 16.69Q74.98 16.27 74.98 15.38L74.98 15.38L74.98 8.06Q74.98 7.13 74.81 6.67Q74.64 6.22 74.09 6.22L74.09 6.22Q73.49 6.22 73.27 6.67Q73.06 7.13 73.06 8.02L73.06 8.02L73.06 15.38Q73.06 16.54 73.25 17.10Q73.44 17.66 74.11 17.66L74.11 17.66ZM85.87 20.93Q80.62 20.93 80.62 15.48L80.62 15.48L80.62 8.42Q80.62 5.93 82.02 4.45Q83.42 2.98 85.87 2.98L85.87 2.98Q88.32 2.98 89.72 4.45Q91.13 5.93 91.13 8.42L91.13 8.42L91.13 15.48Q91.13 20.93 85.87 20.93L85.87 20.93ZM85.87 17.69Q86.38 17.69 86.62 17.33Q86.86 16.97 86.86 16.34L86.86 16.34L86.86 7.75Q86.86 6.22 85.87 6.22L85.87 6.22Q84.89 6.22 84.89 7.75L84.89 7.75L84.89 16.34Q84.89 16.97 85.13 17.33Q85.37 17.69 85.87 17.69L85.87 17.69ZM92.69 20.74L92.69 3.17L96.89 3.17L96.89 5.40Q97.15 4.32 97.80 3.65Q98.45 2.98 99.53 2.98L99.53 2.98Q101.30 2.98 102.16 4.07Q103.01 5.16 103.01 7.18L103.01 7.18L103.01 20.74L98.88 20.74L98.88 7.61Q98.88 7.03 98.65 6.62Q98.42 6.22 97.94 6.22L97.94 6.22Q97.30 6.22 97.09 6.80Q96.89 7.39 96.89 8.38L96.89 8.38L96.89 20.74L92.69 20.74Z" transform="translate(47.02, 4.132)"></path></svg>