<?xml version="1.0" standalone="no"?>
<svg xmlns="http://www.w3.org/2000/svg" viewBox="0 0 136.42 29" width="136.42" height="29"><g fill="#d2001a" color="#d2001a" transform="translate(0, 0) scale(0.5686275)"><svg width="44.0" height="51.0" x="0.0" y="0.0" viewBox="0 0 44 51"><path fill="currentColor" fill-rule="evenodd" d="M21.986 0L44 12.704v25.393L22.029 50.801.014 38.111 0 12.718 21.986 0zM22 7.428L6.43 16.425V34.42l15.599 8.996 15.555-9.01-.014-17.994L22 7.428zm-.001 5.403l10.907 6.302v12.561l-10.907 6.302-10.893-6.288-.015-12.575L22 12.83z"></path></svg></g><line x1="37.02" y1="1" x2="37.02" y2="28" stroke="#3b3b3e" stroke-linecap="round"></line><path fill="#3b3b3e" fill-rule="nonzero" d="M0.56 1.92Q0.94 1.68 1.42 1.68Q1.90 1.68 2.02 2.23L2.02 2.23Q2.04 5.02 2.11 10.56L2.11 10.56Q2.11 13.94 1.92 16.30L1.92 16.30Q1.87 16.66 1.48 16.93Q1.08 17.21 0.67 17.21L0.67 17.21Q0 17.21 0 16.51L0 16.51Q0.24 14.11 0.24 10.56L0.24 10.56L0.10 2.50Q0.19 2.16 0.56 1.92ZM12.48 5.86L12.48 5.86Q12.82 5.86 12.98 6.08Q13.15 6.31 13.15 6.58L13.15 6.58L13.13 6.82Q12.12 9.38 11.64 10.99L11.64 10.99Q11.33 12.12 11.17 12.67Q11.02 13.22 10.66 14.62Q10.30 16.01 10.18 16.42L10.18 16.42Q9.84 17.23 9 17.23L9 17.23Q8.59 17.23 8.42 16.70L8.42 16.70Q7.66 14.30 6.17 11.28Q4.68 8.26 4.48 7.81Q4.27 7.37 4.27 7.01Q4.27 6.65 4.60 6.31Q4.92 5.98 5.33 5.98Q5.74 5.98 6.02 6.41L6.02 6.41Q6.29 6.94 7.52 9.36Q8.76 11.78 9.26 13.18L9.26 13.18Q9.29 13.03 9.43 12.58L9.43 12.58Q10.66 8.33 11.42 6.50L11.42 6.50Q11.83 5.86 12.48 5.86ZM21.02 5.98L21.02 5.98Q22.08 5.98 22.08 7.78L22.08 7.78Q22.08 7.97 22.08 8.18L22.08 8.18L22.03 9.86Q22.01 10.66 22.01 11.42L22.01 11.42L22.37 16.85Q22.37 17.45 21.14 17.45L21.14 17.45Q21.07 17.45 20.80 17.45Q20.52 17.45 20.41 17.23Q20.30 17.02 20.39 16.70Q20.47 16.39 20.33 16.01L20.33 16.01Q19.22 17.18 17.40 17.18L17.40 17.18Q14.02 17.18 14.02 11.95L14.02 11.95Q14.02 9.05 15.11 7.56Q16.20 6.07 18.24 6.07L18.24 6.07Q19.20 6.07 20.16 6.41L20.16 6.41Q20.47 5.98 21.02 5.98ZM18.53 8.16L18.53 8.16Q17.16 8.16 16.49 8.95Q15.82 9.74 15.82 11.86L15.82 11.86Q15.82 15.41 17.74 15.41L17.74 15.41Q18.24 15.41 18.85 14.95Q19.46 14.50 19.70 13.92L19.70 13.92Q20.16 12.62 20.16 11.09Q20.16 9.55 19.79 8.86Q19.42 8.16 18.53 8.16ZM24.65 16.44L24.65 16.44L24.38 6.70Q24.38 6.24 24.70 5.95Q25.01 5.66 25.32 5.66L25.32 5.66Q26.09 5.66 26.21 6.31L26.21 6.31Q26.30 6.96 26.30 7.66L26.30 7.66Q27.60 5.95 29.54 5.95L29.54 5.95Q32.52 5.95 32.52 12.74L32.52 12.74Q32.52 13.37 32.52 14.63Q32.52 15.89 32.38 16.46L32.38 16.46Q32.21 17.18 31.34 17.18L31.34 17.18Q30.77 17.18 30.77 16.42L30.77 16.42L30.79 15.07Q30.79 12.29 30.61 11.27Q30.43 10.25 30.26 9.65L30.26 9.65Q29.86 8.35 28.94 8.35L28.94 8.35Q27.74 8.35 27.26 9.22L27.26 9.22Q26.74 10.15 26.64 11.42L26.64 11.42Q26.47 13.66 26.47 16.15L26.47 16.15Q26.47 16.63 26.11 16.92Q25.75 17.21 25.25 17.21L25.25 17.21Q24.65 17.21 24.65 16.44ZM40.56 14.74L40.56 14.74Q40.39 12.26 40.39 8.05Q40.39 3.84 40.51 2.59L40.51 2.59Q40.63 1.82 41.57 1.57Q42.50 1.32 44.04 1.32L44.04 1.32Q46.30 1.32 47.84 2.29Q49.39 3.26 49.39 5.16L49.39 5.16Q49.39 6.72 48.96 7.76Q48.53 8.81 47.88 9.31L47.88 9.31Q46.82 10.13 44.76 10.13L44.76 10.13Q43.87 10.13 42.43 9.89L42.43 9.89Q42.55 14.69 42.53 15.94Q42.50 17.18 41.69 17.18L41.69 17.18Q41.16 17.18 41.02 16.99Q40.87 16.80 40.82 16.72Q40.78 16.63 40.73 16.46Q40.68 16.30 40.66 16.19Q40.63 16.08 40.62 15.86Q40.61 15.65 40.58 15.53L40.58 15.53Q40.56 15.17 40.56 14.74ZM47.40 5.22Q47.40 4.25 46.34 3.68Q45.29 3.12 44.09 3.12Q42.89 3.12 42.41 3.34L42.41 3.34Q42.31 4.75 42.31 5.94Q42.31 7.13 42.41 8.09L42.41 8.09Q43.06 8.16 43.30 8.21L43.30 8.21Q43.92 8.28 44.36 8.28Q44.81 8.28 44.96 8.27Q45.12 8.26 45.56 8.20Q46.01 8.14 46.20 7.99Q46.39 7.85 46.68 7.61Q46.97 7.37 47.09 7.06L47.09 7.06Q47.40 6.19 47.40 5.22ZM58.34 5.98L58.34 5.98Q59.40 5.98 59.40 7.78L59.40 7.78Q59.40 7.97 59.40 8.18L59.40 8.18L59.35 9.86Q59.33 10.66 59.33 11.42L59.33 11.42L59.69 16.85Q59.69 17.45 58.46 17.45L58.46 17.45Q58.39 17.45 58.12 17.45Q57.84 17.45 57.73 17.23Q57.62 17.02 57.71 16.70Q57.79 16.39 57.65 16.01L57.65 16.01Q56.54 17.18 54.72 17.18L54.72 17.18Q51.34 17.18 51.34 11.95L51.34 11.95Q51.34 9.05 52.43 7.56Q53.52 6.07 55.56 6.07L55.56 6.07Q56.52 6.07 57.48 6.41L57.48 6.41Q57.79 5.98 58.34 5.98ZM55.85 8.16L55.85 8.16Q54.48 8.16 53.81 8.95Q53.14 9.74 53.14 11.86L53.14 11.86Q53.14 15.41 55.06 15.41L55.06 15.41Q55.56 15.41 56.17 14.95Q56.78 14.50 57.02 13.92L57.02 13.92Q57.48 12.62 57.48 11.09Q57.48 9.55 57.11 8.86Q56.74 8.16 55.85 8.16ZM61.10 0.96L61.10 0.96Q61.10 0 62.30 0L62.30 0Q62.86 0 62.95 0.67L62.95 0.67L62.95 4.27Q62.95 5.28 62.98 6.29L62.98 6.29Q63.46 6.14 64.20 6.14L64.20 6.14Q66.53 6.14 67.80 7.70Q69.07 9.26 69.07 11.62Q69.07 13.97 67.57 15.59Q66.07 17.21 63.72 17.21Q61.37 17.21 61.37 15.88Q61.37 14.54 61.24 9.11Q61.10 3.67 61.10 0.96ZM65.95 8.69L65.95 8.69Q65.09 8.02 64.13 8.02L64.13 8.02Q63.60 8.02 63.05 8.21L63.05 8.21Q63.19 10.18 63.19 15.19L63.19 15.19Q63.60 15.34 64.03 15.34L64.03 15.34Q64.97 15.34 65.90 14.64L65.90 14.64Q67.30 13.68 67.30 11.70Q67.30 9.72 65.95 8.69ZM75.19 6L75.19 6Q76.92 6 78.04 7.66Q79.15 9.31 79.15 11.63Q79.15 13.94 78.01 15.58Q76.87 17.21 74.99 17.21Q73.10 17.21 71.95 15.54Q70.80 13.87 70.80 11.83L70.80 11.83Q70.80 9.22 71.86 7.66L71.86 7.66Q72.98 6 75.19 6ZM74.90 7.97L74.90 7.97Q73.90 7.97 73.25 9.02Q72.60 10.08 72.60 11.26L72.60 11.26Q72.60 13.08 73.32 14.04Q74.04 15 74.95 15L74.95 15Q76.58 15 77.04 13.58L77.04 13.58Q77.23 12.91 77.23 11.90L77.23 11.90Q77.23 7.97 74.90 7.97ZM81.53 16.44L81.53 16.44L81.26 6.70Q81.26 6.24 81.58 5.95Q81.89 5.66 82.20 5.66L82.20 5.66Q82.97 5.66 83.09 6.31L83.09 6.31Q83.18 6.96 83.18 7.66L83.18 7.66Q84.48 5.95 86.42 5.95L86.42 5.95Q89.40 5.95 89.40 12.74L89.40 12.74Q89.40 13.37 89.40 14.63Q89.40 15.89 89.26 16.46L89.26 16.46Q89.09 17.18 88.22 17.18L88.22 17.18Q87.65 17.18 87.65 16.42L87.65 16.42L87.67 15.07Q87.67 12.29 87.49 11.27Q87.31 10.25 87.14 9.65L87.14 9.65Q86.74 8.35 85.82 8.35L85.82 8.35Q84.62 8.35 84.14 9.22L84.14 9.22Q83.62 10.15 83.52 11.42L83.52 11.42Q83.35 13.66 83.35 16.15L83.35 16.15Q83.35 16.63 82.99 16.92Q82.63 17.21 82.13 17.21L82.13 17.21Q81.53 17.21 81.53 16.44Z" transform="translate(47.02, 5.908)"></path></svg>